# xmcd CD database file
#
# Track frame offsets:
#	150
#	14211
#	28615
#	46233
#	62324
#	76487
#	90706
#	105166
#	121773
#	138299
#	154258
#	173478
#
# Disc length: 2499 seconds
#
# Revision: 0
# Processed by: cddbd v1.5.2PL0 Copyright (c) Steve Scherf et al.
# Submitted via: CDex 1.51
#
DISCID=8809c10c
DTITLE=Nichols, Joe - Olf Things New
DYEAR=2009
DGENRE=Country
TTITLE0=Gimmie That Girl
TTITLE1=It's Me I'm Worried About
TTITLE2=Old Things New
TTITLE3=Man, Woman
TTITLE4=Believers
TTITLE5=Cheaper Than A Shrink
TTITLE6=Shape I'm In, The
TTITLE7=This Bed's Too Big
TTITLE8=We All Go Home
TTITLE9=An Old Friend of Mine
TTITLE10=Let's Get Drunk and Fight
TTITLE11=Tequila Makes Her Clothes Fall Off [Fat Shan Remix]
EXTD=YEAR: 2009
EXTT0=
EXTT1=
EXTT2=
EXTT3=
EXTT4=
EXTT5=
EXTT6=
EXTT7=
EXTT8=
EXTT9=
EXTT10=
EXTT11=
PLAYORDER=
